<svg id="directions_car_filled_black_48dp" xmlns="http://www.w3.org/2000/svg" xmlns:xlink="http://www.w3.org/1999/xlink" width="48" height="48" viewBox="0 0 48 48">
  <defs>
    <linearGradient id="linear-gradient" x1="0.5" x2="0.5" y2="1" gradientUnits="objectBoundingBox">
      <stop offset="0" stop-color="#58b0e3"/>
      <stop offset="1" stop-color="#005287"/>
    </linearGradient>
  </defs>
  <g id="Group_11" data-name="Group 11">
    <rect id="Rectangle_4" data-name="Rectangle 4" width="48" height="48" fill="none"/>
  </g>
  <g id="Group_13" data-name="Group 13" transform="translate(6 10)">
    <g id="Group_12" data-name="Group 12">
      <path id="Union_4" data-name="Union 4" d="M-772-656a2.006,2.006,0,0,1-2-2v-2h-24v2a2.006,2.006,0,0,1-2,2h-2a2.006,2.006,0,0,1-2-2v-16l4.16-11.98A3.007,3.007,0,0,1-797-688h22a2.987,2.987,0,0,1,2.84,2.02L-768-674v16a2.006,2.006,0,0,1-2,2Zm-28-8h28v-10h-28Zm1.62-14h24.74l-2.08-6H-796.3Zm18.38,9a3,3,0,0,1,3-3,3,3,0,0,1,3,3,3,3,0,0,1-3,3A3,3,0,0,1-780-669Zm-18,0a3,3,0,0,1,3-3,3,3,0,0,1,3,3,3,3,0,0,1-3,3A3,3,0,0,1-798-669Z" transform="translate(804 688)" fill="url(#linear-gradient)"/>
    </g>
  </g>
</svg>
