<svg xmlns="http://www.w3.org/2000/svg" width="533.042" height="540.926" viewBox="0 0 533.042 540.926">
  <g id="Group_21" data-name="Group 21" transform="translate(0.812 242.96) rotate(-39)">
    <path id="Path_1" data-name="Path 1" d="M624.4,264.525v175.2c-.063,1.264.063,2.5,0,3.73a6.606,6.606,0,0,0,0,.79c-2.687,41.343-27.656,71.023-51.8,89.482-36.539,27.91-78.419,26.93-104.906,16.689-8-3.287-9.577-4.868-14.413-6.8-1.77-1.011-3.54-2.023-5.246-3.1-4.3-2.181-5.121-3.73-7.112-4.962-3.161-2.529-5.5-4.52-9.008-7.681a51.15,51.15,0,0,1-4.52-4.457,109.372,109.372,0,0,1-11.79-14.887c33.409-14.287,73.235-56.8,73.646-107.245V225.015c-.348-11-2.37-37.455,22.22-37.455,4.931,0,10.968,1.043,18.269,3.54l54.839,15.614C614.128,215.406,624.4,217.366,624.4,264.525Z" transform="translate(-240.585 -187.56)" fill="none" stroke="#3e3e3e" stroke-width="2"/>
    <path id="Path_2" data-name="Path 2" d="M576.082,568.544c-5.215-1.391-89.7-24.117-120.426-33.314l-1.17-.348c-.221-.063-.442-.158-.664-.222-2.908-.885-5.089-1.58-6.29-1.991v-.1c-51.9-18.143-88.6-69.664-87.27-130.572V221.744c0-19.534-.031-33.884,18.364-33.884a67.487,67.487,0,0,1,16.5,2.56l64.164,18.111c26.614,10.083,36.729,8.313,36.1,47.475V440.47C494.124,498.754,527.691,548.474,576.082,568.544Z" transform="translate(-360.229 -186.912)" fill="none" stroke="#3e3e3e" stroke-width="2"/>
  </g>
</svg>
