<svg id="Group_2" data-name="Group 2" xmlns="http://www.w3.org/2000/svg" xmlns:xlink="http://www.w3.org/1999/xlink" width="32.619" height="32.432" viewBox="0 0 32.619 32.432">
  <defs>
    <linearGradient id="linear-gradient" x1="0.842" y1="0.026" x2="0.402" y2="0.984" gradientUnits="objectBoundingBox">
      <stop offset="0" stop-color="#ee303c"/>
      <stop offset="1" stop-color="#9e0621"/>
    </linearGradient>
    <linearGradient id="linear-gradient-2" x1="0.654" y1="0.068" x2="0.358" y2="0.946" gradientUnits="objectBoundingBox">
      <stop offset="0" stop-color="#58b0e3"/>
      <stop offset="1" stop-color="#005287"/>
    </linearGradient>
  </defs>
  <path id="Path_1" data-name="Path 1" d="M433.344,194.1V208.99c-.005.107.005.212,0,.317a.56.56,0,0,0,0,.067,10.52,10.52,0,0,1-4.4,7.6,9.332,9.332,0,0,1-8.915,1.418c-.68-.279-.814-.414-1.225-.578-.15-.086-.3-.172-.446-.263a3.757,3.757,0,0,1-.6-.422c-.269-.215-.467-.384-.766-.653a4.347,4.347,0,0,1-.384-.379,9.294,9.294,0,0,1-1-1.265c2.839-1.214,6.224-4.827,6.259-9.114v-14.98c-.03-.935-.2-3.183,1.888-3.183a4.874,4.874,0,0,1,1.553.3l4.66,1.327C432.471,189.926,433.344,190.093,433.344,194.1Z" transform="translate(-400.727 -187.56)" fill="url(#linear-gradient)"/>
  <path id="Path_2" data-name="Path 2" d="M378.573,220.211c-.443-.118-7.623-2.049-10.234-2.831l-.1-.03-.056-.019c-.247-.075-.432-.134-.535-.169v-.008a11.349,11.349,0,0,1-7.416-11.1V190.739c0-1.66,0-2.88,1.561-2.88a5.736,5.736,0,0,1,1.4.218l5.453,1.539c2.262.857,3.121.706,3.068,4.035v15.676A11.392,11.392,0,0,0,378.573,220.211Z" transform="translate(-360.229 -187.779)" fill="url(#linear-gradient-2)"/>
</svg>
