<svg id="how_to_reg_black_24dp" xmlns="http://www.w3.org/2000/svg" xmlns:xlink="http://www.w3.org/1999/xlink" width="48" height="48" viewBox="0 0 48 48">
  <defs>
    <linearGradient id="linear-gradient" x1="0.5" x2="0.5" y2="1" gradientUnits="objectBoundingBox">
      <stop offset="0" stop-color="#58b0e3"/>
      <stop offset="1" stop-color="#005287"/>
    </linearGradient>
  </defs>
  <path id="Path_219" data-name="Path 219" d="M0,0H48V48H0Z" fill="none"/>
  <path id="Path_220" data-name="Path 220" d="M19,20a8,8,0,1,0-8-8A8,8,0,0,0,19,20ZM19,8a4,4,0,1,1-4,4A4.012,4.012,0,0,1,19,8ZM7,32c.4-1.26,5.14-3.36,9.92-3.88l4.08-4A18.681,18.681,0,0,0,19,24c-5.34,0-16,2.68-16,8v4H21l-4-4ZM38.2,21,27.94,31.34,23.8,27.18,21,30l6.94,7L41,23.82Z" transform="translate(3 4)" fill="url(#linear-gradient)"/>
</svg>
