<svg id="Logo" xmlns="http://www.w3.org/2000/svg" xmlns:xlink="http://www.w3.org/1999/xlink" width="260" height="55.843" viewBox="0 0 260 55.843">
  <defs>
    <linearGradient id="linear-gradient" x1="0.5" x2="0.5" y2="1" gradientUnits="objectBoundingBox">
      <stop offset="0" stop-color="#ee303c"/>
      <stop offset="1" stop-color="#9e0621"/>
    </linearGradient>
  </defs>
  <g id="Group_2" data-name="Group 2">
    <path id="Path_1" data-name="Path 1" d="M446.153,198.822v25.637c-.009.185.009.365,0,.546a.96.96,0,0,0,0,.116c-.393,6.05-4.047,10.393-7.581,13.094a16.068,16.068,0,0,1-15.351,2.442c-1.17-.481-1.4-.712-2.109-.994-.259-.148-.518-.3-.768-.453a6.468,6.468,0,0,1-1.041-.726c-.463-.37-.8-.661-1.318-1.124a7.483,7.483,0,0,1-.661-.652,16,16,0,0,1-1.725-2.178c4.889-2.091,10.716-8.311,10.776-15.693V193.041c-.051-1.61-.347-5.481,3.251-5.481a8.392,8.392,0,0,1,2.673.518l8.025,2.285C444.65,191.635,446.153,191.921,446.153,198.822Z" transform="translate(-389.99 -187.56)" fill="#fff"/>
    <path id="Path_2" data-name="Path 2" d="M391.814,243.565c-.763-.2-13.126-3.529-17.622-4.875l-.171-.051c-.032-.009-.065-.023-.1-.032-.426-.129-.745-.231-.92-.291V238.3a19.542,19.542,0,0,1-12.77-19.106V192.818c0-2.858,0-4.958,2.687-4.958a9.875,9.875,0,0,1,2.414.375l9.389,2.65c3.894,1.475,5.374,1.216,5.282,6.947v26.992A19.616,19.616,0,0,0,391.814,243.565Z" transform="translate(-360.229 -187.721)" fill="url(#linear-gradient)"/>
  </g>
  <g id="Group_1" data-name="Group 1" transform="translate(70.317 5.868)">
    <path id="Path_4" data-name="Path 4" d="M325.763,342.219h0c-2.139,0-3.952,2.368-3.879,4.4.068,1.907,1.868,4.1,3.879,4.1,2.04,0,3.836-2.2,3.881-4.143.047-2.011-1.758-4.356-3.881-4.356m-9.986-8.678h0a6.516,6.516,0,0,1,6.45-6.511h13.426v5.029H323.565a1.619,1.619,0,0,0-1.585,1.605v4.257c3.48-.893,6.715-.813,9.589,1.052a8.894,8.894,0,0,1,4.084,7.695c-.205,5.535-4.641,9.049-9.954,9.05-6.082,0-9.834-3.038-9.907-9.085Zm53.258-5.969h0v19.164c.075,5.211,3.79,9.085,9.462,9.085s9.384-3.875,9.46-9.085v-5.745h-6.266v5.729c0,3.591-1.8,4.052-3.194,4.068-1.4-.016-3.195-.477-3.195-4.068,0-2.227-.008-16.761-.011-19.148Zm-65.2,6.1h0a1.625,1.625,0,0,0-3.25,0v4.45h-6.2v-4.45a1.606,1.606,0,0,0-1.567-1.608H289.03V327.03h3.983a8.658,8.658,0,0,1,4.9,1.42,7.674,7.674,0,0,1,4.775-1.42,7.257,7.257,0,0,1,7.407,7.224v12.38c-.076,5.211-3.79,9.085-9.462,9.085s-9.386-3.874-9.462-9.085v-3.191h6.268c0,.528,0,2.61,0,3.175,0,3.59,1.8,4.054,3.193,4.069,1.4-.015,3.193-.479,3.193-4.069,0-3.913.022-7.183.007-12.948m151.8,21.574h0v-15.5a17.347,17.347,0,0,1,1.325-7.246,8.78,8.78,0,0,1,3.807-4.164,12.409,12.409,0,0,1,6-1.335A13.118,13.118,0,0,1,473,328.368a9.17,9.17,0,0,1,3.965,4.194,16.194,16.194,0,0,1,1.389,7.09v15.589h-6.268v-16a9.278,9.278,0,0,0-1.319-5.451,4.411,4.411,0,0,0-3.8-1.767,4.29,4.29,0,0,0-3.719,1.815,9.306,9.306,0,0,0-1.312,5.4v16Zm-56.506-17.575h0c0-1.58.144-3.624,1.41-4.774a3.038,3.038,0,0,1,2.011-.873,2.462,2.462,0,0,1,1.813.635c1.7,1.418,1.592,3.707,1.592,5.795v6.262h6.268V338.45c0-2.088-.114-4.377,1.59-5.795a2.515,2.515,0,0,1,1.905-.632,3.024,3.024,0,0,1,1.919.87c1.265,1.15,1.408,3.193,1.412,4.774l.014,17.575h6.252v-15c0-3.416-.146-7.165-2.456-9.894a9.4,9.4,0,0,0-13.77-.642,9.4,9.4,0,0,0-13.774.642c-2.307,2.729-2.454,6.477-2.454,9.894v15h6.252Zm-58.763,17.575h0v-15.5a17.335,17.335,0,0,1,1.326-7.246,8.779,8.779,0,0,1,3.806-4.164,12.418,12.418,0,0,1,6-1.335,13.123,13.123,0,0,1,6.234,1.375,9.164,9.164,0,0,1,3.965,4.194,16.163,16.163,0,0,1,1.388,7.09v15.589h-6.269v-16a9.245,9.245,0,0,0-1.32-5.451,4.4,4.4,0,0,0-3.794-1.767,4.29,4.29,0,0,0-3.718,1.815,9.329,9.329,0,0,0-1.311,5.4v16Zm100.348-13.058h0c-2.139,0-3.953,2.37-3.88,4.4.068,1.906,1.87,4.1,3.88,4.1,2.042,0,3.834-2.2,3.882-4.139.044-2.012-1.759-4.358-3.882-4.358m-9.986-8.68a6.516,6.516,0,0,1,6.449-6.512H450.6v5.031h-12.09a1.618,1.618,0,0,0-1.584,1.608v4.255c3.482-.892,6.717-.811,9.59,1.053a8.888,8.888,0,0,1,4.084,7.694c-.2,5.535-4.641,9.049-9.955,9.049-6.082,0-9.833-3.038-9.905-9.086Z" transform="translate(-288.983 -326.993)" fill="#fff" fill-rule="evenodd"/>
    <path id="Path_5" data-name="Path 5" d="M509.418,385.173a3.8,3.8,0,0,0-.52-1.464q-.1-.151-.2-.29a6.63,6.63,0,0,0-1.312-1.236l-.065-.046-.805-.6c-.075-.057-.153-.118-.226-.178a.943.943,0,0,1-.407-.6,2.012,2.012,0,0,1-.029-.37v-.99h-2.164v1.128l0,.193A2.5,2.5,0,0,0,504.7,382.8c.458.375.977.656,1.449,1.011l.113.082.108.086a2.1,2.1,0,0,1,.8,1.059l.04.122.032.127a2.786,2.786,0,0,1-.175,1.969,1.22,1.22,0,0,1-1.5.728l-.116-.035a2.185,2.185,0,0,1-1.137-1.117l-.149-.264-1.888,1.141.12.234a4.279,4.279,0,0,0,1.2,1.5l.1.079a3.2,3.2,0,0,0,1.735.635l.139.01a3.81,3.81,0,0,0,1.572-.195,3.262,3.262,0,0,0,2.09-2.256l.051-.17.047-.174a5.239,5.239,0,0,0,.1-2.1Z" transform="translate(-348.99 -341.74)" fill="#fff"/>
    <path id="Path_6" data-name="Path 6" d="M496.091,383.292a1.736,1.736,0,0,0-.525-1.641,2.863,2.863,0,0,0-.645-.425c-.819-.417-1.781-.468-2.581-.919l-.046-.027a.3.3,0,0,1-.128-.3v-.652H490.04v.655a1.826,1.826,0,0,0,.324,1.107,2.931,2.931,0,0,0,1.37.916c.345.137.7.238,1.051.361l.1.031a4.546,4.546,0,0,1,.867.371.468.468,0,0,1,.037.79,1.066,1.066,0,0,1-.734.19h-1.188v1.784h1.2a.986.986,0,0,1,.244.029.9.9,0,0,1,.606.62,1.445,1.445,0,0,1,.047,1.038,1.3,1.3,0,0,1-.806.877,1.563,1.563,0,0,1-1.014.055,1.279,1.279,0,0,1-.836-.65,2.5,2.5,0,0,1-.267-.854l-.007-.041h-2.075l0,.051a5.535,5.535,0,0,0,.143.988,3.351,3.351,0,0,0,1.023,1.733,3.278,3.278,0,0,0,2.159.829,3.739,3.739,0,0,0,2.257-.561,3.329,3.329,0,0,0,1.247-1.4,3.092,3.092,0,0,0,.331-1.541,2.993,2.993,0,0,0-.415-1.395,3.122,3.122,0,0,0-.448-.588,2.711,2.711,0,0,0,.423-.424,2.033,2.033,0,0,0,.416-1" transform="translate(-345.241 -341.72)" fill="#fff"/>
    <path id="Path_7" data-name="Path 7" d="M462.234,380.187a3.264,3.264,0,0,0-4.658.246,4.883,4.883,0,0,0-.814,3.265V387a7.4,7.4,0,0,0,.4,2.2l.029.088c.088.281.191.555.3.828l.039.091h2.326l-.074-.136c-.134-.252-.261-.509-.369-.772l-.063-.147a5.459,5.459,0,0,1-.455-2.126v-.966h0V383.15a2.069,2.069,0,0,1,.448-1.529,1.041,1.041,0,0,1,1.308-.076,2.259,2.259,0,0,1,.5,1.861v1.8h2.142v-1.8a2.263,2.263,0,0,1,.5-1.861,1.044,1.044,0,0,1,1.31.076,2.077,2.077,0,0,1,.446,1.529v3.877a5.5,5.5,0,0,1-.458,2.126l-.062.147c-.111.263-.236.52-.37.772l-.075.136h2.328l.04-.091c.112-.272.213-.547.3-.828l.029-.088a7.287,7.287,0,0,0,.4-2.2v-.937h.008V383.7a4.88,4.88,0,0,0-.816-3.265,3.264,3.264,0,0,0-4.658-.246" transform="translate(-336.183 -341.72)" fill="#fff"/>
    <path id="Path_8" data-name="Path 8" d="M449.519,384.9a2.68,2.68,0,0,0-1.054-.671l-.06-.021c.063-.034.124-.071.183-.109A2.53,2.53,0,0,0,449.6,382.9a2.429,2.429,0,0,0,.064-1.522,2.636,2.636,0,0,0-.8-1.284,2.9,2.9,0,0,0-1.122-.669,3.715,3.715,0,0,0-1.174-.156h-.047V381.3h.1a.927.927,0,0,1,.922.543.944.944,0,0,1-.162.986,1.293,1.293,0,0,1-.645.432,3.9,3.9,0,0,1-.869.143l-.043,0v1.826h.047a4.067,4.067,0,0,1,1.021.128,1.948,1.948,0,0,1,.974.6,1.363,1.363,0,0,1,.157,1.562,1.4,1.4,0,0,1-.431.482,1.643,1.643,0,0,1-1.425.207,1.365,1.365,0,0,1-.793-.629,2.072,2.072,0,0,1-.252-.716l-.027-.161h-2.085l0,.052a4.392,4.392,0,0,0,.457,1.758,3.186,3.186,0,0,0,1.87,1.54,4.391,4.391,0,0,0,1.812.144,3.716,3.716,0,0,0,1.735-.666,3.343,3.343,0,0,0,1.122-1.378,3.209,3.209,0,0,0,.187-2,2.58,2.58,0,0,0-.687-1.251" transform="translate(-332.315 -341.703)" fill="#fff"/>
    <path id="Path_9" data-name="Path 9" d="M480.6,387.813h0a1.132,1.132,0,0,1-1.75.148,1.606,1.606,0,0,1-.291-1.063,1.76,1.76,0,0,1,.291-1.071,1.108,1.108,0,0,1,1.642-.027,1.746,1.746,0,0,1,.294,1.1,1.938,1.938,0,0,1-.186.915m.849-8.032a3.754,3.754,0,0,0-3.959.232,2.678,2.678,0,0,0-.771.882,2.3,2.3,0,0,0-.221.566,2.523,2.523,0,0,0-.079.628v1.121h2.14v-.949a1.125,1.125,0,0,1,.193-.626,1.211,1.211,0,0,1,1.842-.215.685.685,0,0,1,.185.468v2.078a3.252,3.252,0,0,0-2.418-.016,3.035,3.035,0,0,0-1.7,1.71,3.524,3.524,0,0,0-.244,1.314,3.033,3.033,0,0,0,2,3.034,3.541,3.541,0,0,0,1.2.2,3.485,3.485,0,0,0,1.76-.43,2.876,2.876,0,0,0,1.362-1.946,3.941,3.941,0,0,0,.088-.847V381.95a2.147,2.147,0,0,0-.514-1.443,3.644,3.644,0,0,0-.865-.726" transform="translate(-341.715 -341.718)" fill="#fff"/>
    <path id="Path_10" data-name="Path 10" d="M535.723,380.54a3.347,3.347,0,0,0-1.2-.877,4.05,4.05,0,0,0-1.578-.283,3.837,3.837,0,0,0-2.058.543,3.166,3.166,0,0,0-1.255,1.364,7.483,7.483,0,0,0-.375,2.743v2.941a7.221,7.221,0,0,0,.406,2.2l.026.088c.089.282.19.555.3.829l.037.089h2.33l-.074-.134a8.46,8.46,0,0,1-.372-.772l-.06-.147a5.44,5.44,0,0,1-.459-2.127v-.967h.006v-2.547a3.722,3.722,0,0,1,.153-1.251,1.228,1.228,0,0,1,.5-.576,1.773,1.773,0,0,1,1.753.024,1.284,1.284,0,0,1,.52.612,4.913,4.913,0,0,1,.148,1.444V387a5.41,5.41,0,0,1-.456,2.127l-.061.147c-.11.263-.237.52-.371.772l-.075.134h2.33l.037-.089c.111-.274.215-.546.3-.829l.029-.088a7.287,7.287,0,0,0,.405-2.2v-.938h0v-2a9.413,9.413,0,0,0-.182-2.258,3.311,3.311,0,0,0-.707-1.231" transform="translate(-356.581 -341.734)" fill="#fff"/>
    <path id="Path_11" data-name="Path 11" d="M519.36,388.274h0c-.766-.034-1.066-.692-1.1-1.37-.042-.746.276-1.462,1.12-1.457.9.007,1.13.75,1.105,1.519-.02.655-.379,1.342-1.123,1.309m2.826-3.049a2.766,2.766,0,0,0-.974-1.093,3.4,3.4,0,0,0-2.962-.367v-1.325c0-.522.432-.6.869-.533a5.191,5.191,0,0,0,1.5.125,1.53,1.53,0,0,0,1.465-1.535v-1.1h-1.754v.262c-.107.229-.392.236-.607.194-.344-.065-.691-.174-1.034-.218a2.171,2.171,0,0,0-2.239,1,1.941,1.941,0,0,0-.332,1.055l0,.07v1.684h.007V386.8a4.12,4.12,0,0,0,.274,1.552,2.767,2.767,0,0,0,1.107,1.36,3.317,3.317,0,0,0,1.845.458,3.272,3.272,0,0,0,1.6-.357l.089-.047.092-.054a2.632,2.632,0,0,0,.939-.946,3.422,3.422,0,0,0,.509-1.763v-.056a3.468,3.468,0,0,0-.35-1.65Z" transform="translate(-352.883 -341.74)" fill="#fff"/>
    <path id="Path_12" data-name="Path 12" d="M550.037,385.271l-.014-.1a3.837,3.837,0,0,0-.52-1.463c-.062-.1-.133-.2-.2-.29a6.631,6.631,0,0,0-1.313-1.237l-.065-.046-.8-.6c-.077-.058-.155-.118-.229-.179a.95.95,0,0,1-.408-.6,2.065,2.065,0,0,1-.029-.369v-.99h-2.164v1.127l0,.193a2.5,2.5,0,0,0,1.014,2.082c.456.375.977.656,1.449,1.01l.112.083.111.086a2.136,2.136,0,0,1,.8,1.06l.038.122.032.126a2.785,2.785,0,0,1-.174,1.97,1.222,1.222,0,0,1-1.5.727l-.114-.035a2.188,2.188,0,0,1-1.138-1.118l-.149-.264-1.889,1.141.122.234a4.239,4.239,0,0,0,1.2,1.5l.106.079a3.222,3.222,0,0,0,1.733.635l.139.009a3.778,3.778,0,0,0,1.572-.195,3.262,3.262,0,0,0,2.092-2.256l.049-.17.047-.175a5.252,5.252,0,0,0,.1-2.1" transform="translate(-360.416 -341.74)" fill="#fff"/>
    <path id="Path_13" data-name="Path 13" d="M295.2,385.944a1.886,1.886,0,0,0-.537-.985l-.035-.032-.213-.2c-.127-.119-.033-.23.04-.344l.531-.854h-2.106l-.1.055a1.143,1.143,0,0,0-.431.583,1.333,1.333,0,0,0,.206,1.455l.193.2a1.83,1.83,0,0,1,.325.329l.018.039a1.293,1.293,0,0,1,.125.461c.08.722-.194,1.646-1.077,1.608a1.028,1.028,0,0,1-.968-.755,1.689,1.689,0,0,1-.1-.574v-7.42h-2.11v7.432a3.125,3.125,0,0,0,.032.392,3.842,3.842,0,0,0,.236,1.005,2.7,2.7,0,0,0,1.084,1.334,3.253,3.253,0,0,0,1.808.452,3.219,3.219,0,0,0,1.577-.352l.087-.047.09-.053a2.637,2.637,0,0,0,.921-.928,3.337,3.337,0,0,0,.487-1.559h.007l0-.043a3.916,3.916,0,0,0-.079-1.132Z" transform="translate(-288.964 -341.771)" fill="#fff"/>
    <path id="Path_14" data-name="Path 14" d="M319.446,382.08h0c.068-.282.234-.783.533-.89a1.29,1.29,0,0,1,1.477.32,2.839,2.839,0,0,1,.234,2.1,1.06,1.06,0,0,1-.989.852,1.024,1.024,0,0,1-1.191-.687,3.471,3.471,0,0,1-.063-1.7m-3.616-.566c.421-.672,1.112-.331,1.358.3a2.182,2.182,0,0,1,.2.824,3.647,3.647,0,0,0,.795,2.578,2.588,2.588,0,0,0,.993.594,4.765,4.765,0,0,0,2.961-.071,2.327,2.327,0,0,0,1.148-1.029,4.55,4.55,0,0,0,.185-3.436,2.583,2.583,0,0,0-.7-1.037,2.765,2.765,0,0,0-.469-.339,3.6,3.6,0,0,0-1.755-.392,3.087,3.087,0,0,0-2.333.884,3.422,3.422,0,0,0-.693-.515,2.514,2.514,0,0,0-1.254-.369,2.4,2.4,0,0,0-1.562.517,3.094,3.094,0,0,0-.915,1.293,4.409,4.409,0,0,0-.286,1.595,4.113,4.113,0,0,0,.08.8c.029.138.063.275.1.409.047.153.1.3.156.451a5.217,5.217,0,0,0,.809,1.515h-.579v1.576h.046c.218,0,.439,0,.659.006s.415,0,.624.009c.732.018,1.462.038,2.187.119a9.585,9.585,0,0,1,1.679.328,3.036,3.036,0,0,1,1.71,1.1,3.181,3.181,0,0,1,.372.876l.011.032h2.192l-.021-.059a8.622,8.622,0,0,0-.389-1.018,3.881,3.881,0,0,0-1.756-1.9,11.3,11.3,0,0,0-2.634-.862,6.044,6.044,0,0,1-2.359-1.058,2.1,2.1,0,0,1-.605-.845,3.388,3.388,0,0,1-.238-1.338,6.309,6.309,0,0,1,.033-.7,2.061,2.061,0,0,1,.242-.831" transform="translate(-295.87 -341.77)" fill="#fff"/>
    <path id="Path_15" data-name="Path 15" d="M382.926,384.226a2.632,2.632,0,0,0,.991-.869,2.28,2.28,0,0,0-.043-2.341,2.827,2.827,0,0,0-.755-.906,3.035,3.035,0,0,0-1-.507,3.4,3.4,0,0,0-2.253.1,2.7,2.7,0,0,0-1.339,1.087,2.552,2.552,0,0,0-.414,1.026,3.427,3.427,0,0,0-.043.4c0,.22,0,.441,0,.662v.047h1.97v-.047a4.791,4.791,0,0,1,.007-.665.831.831,0,0,1,.068-.228,1.051,1.051,0,0,1,.535-.518.992.992,0,0,1,.883-.022.944.944,0,0,1,.026,1.8,3.184,3.184,0,0,1-1.016.213l-.042,0V385.2h.046a2.81,2.81,0,0,1,1.7.48,1.4,1.4,0,0,1,.579,1.132,1.388,1.388,0,0,1-.43,1.03,1.614,1.614,0,0,1-2.124.052,1.93,1.93,0,0,1-.533-1.148l-.005-.037h-2l0,.048a3.582,3.582,0,0,0,1.034,2.466,3.816,3.816,0,0,0,5.027-.055,3.111,3.111,0,0,0,1.015-2.352,2.66,2.66,0,0,0-.527-1.646,2.76,2.76,0,0,0-1.36-.946" transform="translate(-313.944 -341.757)" fill="#fff"/>
    <path id="Path_16" data-name="Path 16" d="M370.38,382.431l-.005-.1-.011-.1-.013-.1-.017-.1-.017-.1-.022-.1-.024-.1-.026-.1-.032-.1-.035-.095-.034-.1-.041-.1-.04-.093-.045-.095-.047-.092-.05-.091-.052-.087-.055-.087-.058-.081-.061-.083-.063-.079-.065-.077-.07-.071-.071-.072-.07-.068-.077-.065-.078-.062-.081-.062-.085-.059-.086-.055-.088-.053-.09-.049-.093-.047-.091-.04-.093-.042-.095-.034-.094-.033-.1-.032-.144-.036-.15-.031-.147-.024-.155-.016-.153-.01-.155,0-.154.006-.155.013-.154.02-.15.026-.15.033-.151.042-.146.047-.144.054-.139.064-.132.069-.1.056-.1.061-.1.065-.092.069-.09.068-.086.078-.037.033-.037-.037-.092-.074-.09-.071-.093-.066-.095-.065-.1-.061-.1-.056-.135-.069-.142-.06-.142-.055-.146-.047-.147-.043-.151-.033-.15-.026-.154-.019-.154-.014-.154-.006h-.153l-.154.009-.149.016-.151.022-.148.027-.145.035-.1.029-.095.031-.09.033-.092.037-.092.04-.091.042-.088.047-.09.05-.167.11-.159.12-.149.131-.139.142-.129.152-.118.162-.11.173-.1.182-.045.095-.045.095-.04.1-.037.1-.035.1-.03.1-.028.1-.027.106-.019.106-.022.107-.017.109-.013.112-.011.112-.005.114-.006.114v.229l0,.11.006.111.01.111.012.109.011.112.017.11.017.108.021.111.023.109.025.109.027.111.031.108.032.109.034.106.036.109.039.11.042.111.045.106.042.106.047.1.046.1.046.1.05.095.049.091.053.089.055.091.058.086.057.086.061.083.062.084.03.036h-.783v1.814h.3l.361,0h.234l.231.005.227,0,.221.006.218.006.214.009.21.007.206.008.2.012.382.021.2.012.186.015.18.014.175.016.172.015.167.017.162.02.161.018.152.024.152.021.148.022.139.021.139.026.134.027.129.024.124.027.122.028.116.028.11.031.1.026.095.03.09.03.088.032.081.034.08.034.078.037.072.036.065.039.067.037.06.042.057.042.055.044.052.044.045.045.046.047.043.052.04.056.039.058.038.057.032.065.029.063.028.07.024.07.024.074.02.078.015.083.013.083.009.086.009.091,0,.095.008.272h2.113l0-.259v-.085l0-.081-.006-.083-.006-.078-.011-.077-.01-.078-.011-.075-.013-.075-.014-.073-.017-.07-.018-.072-.019-.07-.02-.067-.022-.066-.024-.068-.054-.126-.057-.126-.069-.124-.072-.122-.08-.123-.086-.12-.093-.12-.1-.116-.088-.1-.094-.095-.092-.091-.1-.093-.1-.088-.1-.086-.1-.083-.11-.082-.136-.1-.137-.085-.139-.083-.139-.075-.139-.069-.14-.061-.14-.058-.142-.05-.142-.047-.14-.042-.138-.039-.142-.035-.142-.033-.138-.032-.141-.027-.139-.028-.139-.025-.277-.048-.274-.052-.134-.024-.134-.03-.136-.031-.132-.033-.133-.034-.132-.039-.13-.042-.131-.046-.13-.052-.129-.054-.126-.062-.125-.066-.12-.073-.114-.079-.111-.086-.107-.093-.1-.1-.1-.1-.1-.114-.093-.116-.091-.119-.082-.125-.079-.129-.073-.134-.065-.138-.06-.141-.058-.145-.049-.145-.046-.148-.036-.152-.033-.155-.022-.152-.018-.155-.011-.152,0-.155,0-.089.007-.093.011-.088.015-.089.02-.09.023-.088.031-.088.029-.083.037-.083.038-.081.044-.074.047-.075.05-.07.053-.061.057-.06.057-.055.053-.039.055-.034.058-.03.061-.024.065-.018.065-.014.067-.011.069,0h.066l.069,0,.07.012.063.019.067.021.06.026.06.03.055.032.06.048.059.057.052.065.048.071.042.077.04.087.034.088.03.094.026.095.024.1.017.1.012.1.012.1.007.1,0,.1,0,.095v1.447h2.111v-1.554l.006-.1,0-.1.009-.092.008-.09.012-.083.014-.081.015-.076.018-.07.02-.069.02-.065.027-.064.027-.06.028-.057.032-.053.031-.047.067-.078.075-.066.083-.057.09-.046.1-.034.1-.026.1-.014.1,0,.1.009.1.021.1.031.094.04.085.052.078.063.072.073.062.088.039.058.038.064.035.069.034.066.029.068.029.069.024.072.025.069.017.073.019.073.014.075.009.075.008.077v.158l0,.081-.017.151-.017.145-.018.135-.022.125-.024.116-.03.112-.034.1-.037.1-.043.093-.05.1-.056.09-.063.094-.072.09-.083.093-.088.1-.412.4h2.514l.128-.187.07-.117.068-.121.063-.125.055-.125.05-.129.047-.129.039-.131.035-.134.029-.136.025-.137.034-.275.012-.141,0-.139,0-.141v-.1Z" transform="translate(-308.967 -341.743)" fill="#fff"/>
    <path id="Path_17" data-name="Path 17" d="M307.763,385.208a3.749,3.749,0,0,0-.509-1.437,3.423,3.423,0,0,0-.2-.283,6.308,6.308,0,0,0-1.288-1.213l-.062-.046-.791-.59c-.075-.054-.149-.112-.221-.174a.93.93,0,0,1-.4-.59,2.069,2.069,0,0,1-.031-.36v-.972h-2.12v1.107l0,.19a2.447,2.447,0,0,0,1,2.039c.446.367.956.647,1.419.992l.111.083.109.085a2.077,2.077,0,0,1,.78,1.038l.037.121.031.122a2.73,2.73,0,0,1-.17,1.928,1.2,1.2,0,0,1-1.471.716l-.112-.039a2.127,2.127,0,0,1-1.115-1.092l-.149-.259-1.853,1.12.118.231a4.2,4.2,0,0,0,1.179,1.472l.1.077a3.151,3.151,0,0,0,1.7.621l.137.012a3.664,3.664,0,0,0,1.54-.193,3.189,3.189,0,0,0,2.052-2.211l.052-.166.044-.174a5.1,5.1,0,0,0,.1-2.06Z" transform="translate(-292.282 -341.781)" fill="#fff"/>
    <path id="Path_18" data-name="Path 18" d="M396.78,380.786a3.283,3.283,0,0,0-1.85-1.188,2.909,2.909,0,0,0-2.236.462,3.107,3.107,0,0,0-.941.991,2.848,2.848,0,0,0-.4,1.477v.371h2.023l.006-.432a.964.964,0,0,1,.378-.69.838.838,0,0,1,1.182,0,1.213,1.213,0,0,1,.346.533.693.693,0,0,1,.037.234v4.354a1.272,1.272,0,0,1-.4.949l-.059.051a.893.893,0,0,1-1.321-.1,1.648,1.648,0,0,1-.425-1.219l0-.07H391.1v.046a3.63,3.63,0,0,0,.136,1.009,3.688,3.688,0,0,0,1.8,2.266,2.579,2.579,0,0,0,.679.24,2.688,2.688,0,0,0,1.441-.119,3.3,3.3,0,0,0,1.887-1.684,3.036,3.036,0,0,0,.307-1.362v-4.372c0-.083,0-.164-.011-.248a2.75,2.75,0,0,0-.56-1.495" transform="translate(-317.704 -341.779)" fill="#fff"/>
    <path id="Path_19" data-name="Path 19" d="M337.533,385.208a3.752,3.752,0,0,0-.511-1.437,2.816,2.816,0,0,0-.2-.283,6.337,6.337,0,0,0-1.287-1.213l-.063-.046-.789-.59a2.386,2.386,0,0,1-.222-.174.919.919,0,0,1-.4-.59,1.877,1.877,0,0,1-.031-.36v-.972h-2.123v1.107l.006.19a2.442,2.442,0,0,0,.992,2.039c.449.367.959.647,1.421.992l.109.083.106.085a2.07,2.07,0,0,1,.783,1.038l.038.121.03.122a2.729,2.729,0,0,1-.17,1.928,1.2,1.2,0,0,1-1.471.716l-.112-.039a2.122,2.122,0,0,1-1.115-1.092l-.148-.259-1.854,1.12.119.231a4.212,4.212,0,0,0,1.177,1.472l.1.077a3.124,3.124,0,0,0,1.7.621l.134.012a3.668,3.668,0,0,0,1.541-.193,3.193,3.193,0,0,0,2.052-2.211l.052-.166.044-.174a5.116,5.116,0,0,0,.1-2.06Z" transform="translate(-300.659 -341.781)" fill="#fff"/>
    <path id="Path_20" data-name="Path 20" d="M349.083,388.423h0a1.511,1.511,0,1,1,1.651-1.505,1.586,1.586,0,0,1-1.651,1.505m-3.72-5.172h0a1.121,1.121,0,1,1,.957-1.108,1.046,1.046,0,0,1-.957,1.108m6.852,2a2.8,2.8,0,0,0-1.146-1.051,3.567,3.567,0,0,0-1.6-.4,4.068,4.068,0,0,0-1.244.163c-.064.018-.128.041-.191.063.052-.191.108-.384.145-.581a6.293,6.293,0,0,0,.09-.783l0-.04a4.737,4.737,0,0,0-.082-1.193,2.272,2.272,0,0,0-2.116-2.006,4.361,4.361,0,0,0-1.3-.014,2.952,2.952,0,0,0-1.135.4,2.512,2.512,0,0,0-.777.729,2.56,2.56,0,0,0-.417,1.636,2.461,2.461,0,0,0,.687,1.783,2.694,2.694,0,0,0,1.5.651,4.2,4.2,0,0,0,1.327.019c-.056.266-.121.533-.2.794l-.014.042a4.981,4.981,0,0,0-.274,1.386,2.981,2.981,0,0,0,.381,1.513,3.318,3.318,0,0,0,1.336,1.326,4.046,4.046,0,0,0,1.39.456,4.737,4.737,0,0,0,1.508-.036,3.491,3.491,0,0,0,1.248-.5,2.907,2.907,0,0,0,.816-.8,3.181,3.181,0,0,0,.533-1.805,3.14,3.14,0,0,0-.424-1.671Z" transform="translate(-304.015 -341.731)" fill="#fff"/>
    <path id="Path_21" data-name="Path 21" d="M408.644,384.226a2.634,2.634,0,0,0,.987-.869,2.282,2.282,0,0,0-.043-2.341,2.77,2.77,0,0,0-.757-.906,3.013,3.013,0,0,0-1-.507,3.41,3.41,0,0,0-2.256.1,2.722,2.722,0,0,0-1.34,1.087,2.565,2.565,0,0,0-.409,1.026,2.341,2.341,0,0,0-.043.4c-.009.22,0,.441,0,.662v.047h1.97v-.047a4.786,4.786,0,0,1,.006-.665.785.785,0,0,1,.068-.228,1.044,1.044,0,0,1,.535-.518.993.993,0,0,1,.884-.022.943.943,0,0,1,.025,1.8,3.164,3.164,0,0,1-1.017.213l-.042,0V385.2h.047a2.792,2.792,0,0,1,1.7.48,1.417,1.417,0,0,1,.155,2.162,1.615,1.615,0,0,1-2.125.052,1.9,1.9,0,0,1-.532-1.148l-.007-.037H403.45l0,.048a3.585,3.585,0,0,0,1.033,2.466,3.812,3.812,0,0,0,5.024-.055,3.109,3.109,0,0,0,1.018-2.352,2.644,2.644,0,0,0-.529-1.646,2.743,2.743,0,0,0-1.355-.946" transform="translate(-321.18 -341.757)" fill="#fff"/>
    <path id="Path_22" data-name="Path 22" d="M422.248,380.187a3.264,3.264,0,0,0-4.658.246,4.874,4.874,0,0,0-.813,3.265V387a7.285,7.285,0,0,0,.4,2.2l.027.088c.089.281.19.555.3.828l.039.091h2.326l-.075-.136c-.134-.252-.259-.507-.371-.772l-.061-.147a5.462,5.462,0,0,1-.457-2.126v-.966h.005V383.15a2.084,2.084,0,0,1,.447-1.529,1.04,1.04,0,0,1,1.307-.076,2.256,2.256,0,0,1,.5,1.861v1.8h2.144v-1.8a2.246,2.246,0,0,1,.506-1.861,1.04,1.04,0,0,1,1.307.076,2.08,2.08,0,0,1,.446,1.529v3.877a5.515,5.515,0,0,1-.457,2.126l-.062.147c-.11.263-.236.52-.371.772l-.075.136h2.328l.038-.091c.112-.272.215-.547.3-.828l.029-.088a7.287,7.287,0,0,0,.4-2.2v-.937h.006V383.7a4.883,4.883,0,0,0-.814-3.265,3.265,3.265,0,0,0-4.659-.246" transform="translate(-324.931 -341.72)" fill="#fff"/>
  </g>
</svg>
