<svg xmlns="http://www.w3.org/2000/svg" width="30.129" height="30.129" viewBox="0 0 30.129 30.129">
  <path id="Path_236" data-name="Path 236" d="M31.455,23.923a19.015,19.015,0,0,1-5.976-.954,1.708,1.708,0,0,0-1.707.4L20.09,27.053A25.232,25.232,0,0,1,9.059,16.039l3.682-3.7a1.643,1.643,0,0,0,.418-1.691,19.015,19.015,0,0,1-.954-5.976A1.679,1.679,0,0,0,10.532,3H4.674A1.679,1.679,0,0,0,3,4.674,28.452,28.452,0,0,0,31.455,33.129a1.679,1.679,0,0,0,1.674-1.674V25.6A1.679,1.679,0,0,0,31.455,23.923ZM18.064,3V19.738l5.021-5.021H33.129V3Z" transform="translate(-3 -3)" fill="#fff"/>
</svg>
